<?xml version="1.0" encoding="UTF-8"?>
<svg width="610px" height="610px" viewBox="0 0 610 610" version="1.1" xmlns="http://www.w3.org/2000/svg" xmlns:xlink="http://www.w3.org/1999/xlink">
    <!-- Generator: Sketch 48.2 (47327) - http://www.bohemiancoding.com/sketch -->
    <title>g2v</title>
    <desc>Created with Sketch.</desc>
    <defs>
        <circle id="path-1" cx="305" cy="305" r="305"></circle>
    </defs>
    <g id="Page-1" stroke="none" stroke-width="1" fill="none" fill-rule="evenodd">
        <g id="Group">
            <mask id="mask-2" fill="white">
                <use xlink:href="#path-1"></use>
            </mask>
            <use id="Oval" fill="#F4F1EA" fill-rule="nonzero" xlink:href="#path-1"></use>
            <path d="M426.282812,137 L426.282812,355.5 C426.282812,377.166775 423.616172,396.749912 418.282812,414.25 C412.949452,431.750088 404.699535,446.583273 393.532812,458.75 C382.36609,470.916727 368.282897,480.3333 351.282812,487 C334.282727,493.6667 314.116262,497 290.782812,497 C281.116097,497 270.8662,496.166675 260.032812,494.5 C249.199425,492.833325 238.532865,490.33335 228.032812,487 C217.53276,483.66665 207.449527,479.500025 197.782812,474.5 C188.116097,469.499975 179.449517,463.833365 171.782812,457.5 L206.282812,411 C217.949537,422.000055 231.116072,430.416637 245.782812,436.25 C260.449552,442.083363 275.282737,445 290.282812,445 C304.616217,445 316.69943,442.916687 326.532812,438.75 C336.366195,434.583313 344.19945,428.83337 350.032812,421.5 C355.866175,414.16663 360.0328,405.50005 362.532812,395.5 C365.032825,385.49995 366.282812,374.50006 366.282812,362.5 L366.282812,345 L365.282812,345 C356.616102,356.666725 345.53288,365.583303 332.032812,371.75 C318.532745,377.916697 303.449562,381 286.782812,381 C268.782722,381 252.449552,377.6667 237.782812,371 C223.116072,364.3333 210.69953,355.33339 200.532812,344 C190.366095,332.66661 182.449507,319.416743 176.782812,304.25 C171.116117,289.083258 168.282812,273.000085 168.282812,256 C168.282812,238.66658 171.032785,222.33341 176.532812,207 C182.03284,191.66659 189.866095,178.33339 200.032812,167 C210.19953,155.66661 222.53274,146.6667 237.032812,140 C251.532885,133.3333 267.782722,130 285.782812,130 C302.782897,130 318.616072,133.499965 333.282812,140.5 C347.949552,147.500035 359.616102,158.33326 368.282812,173 L369.282812,173 L369.282812,137 L426.282812,137 Z M298.282812,179 C287.282757,179 277.532855,180.99998 269.032812,185 C260.53277,189.00002 253.366175,194.416632 247.532812,201.25 C241.69945,208.083368 237.199495,216.16662 234.032812,225.5 C230.86613,234.83338 229.282812,244.83328 229.282812,255.5 C229.282812,265.166715 230.86613,274.499955 234.032812,283.5 C237.199495,292.500045 241.69945,300.583298 247.532812,307.75 C253.366175,314.916703 260.53277,320.666645 269.032812,325 C277.532855,329.333355 287.116092,331.5 297.782812,331.5 C308.782867,331.5 318.699435,329.416688 327.532812,325.25 C336.36619,321.083312 343.866115,315.500035 350.032812,308.5 C356.19951,301.499965 360.949462,293.416713 364.282812,284.25 C367.616162,275.083287 369.282812,265.50005 369.282812,255.5 C369.282812,245.166615 367.616162,235.33338 364.282812,226 C360.949462,216.66662 356.19951,208.500035 350.032812,201.5 C343.866115,194.499965 336.449522,189.00002 327.782812,185 C319.116102,180.99998 309.282867,179 298.282812,179 Z" id="g" fill="#927F64" mask="url(#mask-2)"></path>
        </g>
    </g>
</svg>